<svg id="Layer_1" data-name="Layer 1" xmlns="http://www.w3.org/2000/svg" viewBox="0 0 876.31 594.33"><defs><style>.cls-1{fill:#fff;}</style></defs><title>Pix4D_LOGO_MAIN_white_V2_RGB</title><path class="cls-1" d="M757.88,512.59H845.5c32.94,0,52.79,16,52.79,50.66a123.31,123.31,0,0,1-1.27,16.9L871.69,740.6c-7.17,46-25.76,67.57-72.63,67.57H711Zm-7.37,264.32h45.6c22.37,0,37.17-11,41-33.35L863.27,577.2a63.51,63.51,0,0,0,.84-8.86c0-16.49-12.27-24.5-31.27-24.5H787.25Z" transform="translate(-72.5 -213.83)"/><path id="SVGID" class="cls-1" d="M347.29,457.06c-2.54,4.45-1.83,7.17-.28,8.23l7.56-6h-.29S446.92,365.58,491,333.51c19.28,17.34,104.07,74.9,184.79,103.88,102.91,37,215.51,44.09,222,41.47,10-4,14.54-13.08,17-23l-26.16-.38h0c-2.13,1.06-120.74-8.14-205.92-41.57C581.13,374,498.47,308.6,491,308.6c-16,0-135.48,132.85-143.72,148.46" transform="translate(-72.5 -213.83)"/><g id="Layer_1-2" data-name="Layer 1"><path id="SVGID-2" data-name="SVGID" class="cls-1" d="M934,216.93c-154.08,133.24-268,211.64-579.38,242.36l-7.56,6a2.8,2.8,0,0,0,1.46.49c296,28.69,480.63-89.25,576.56-209.6-17.44,80.52-31.78,185.57-35.95,198.26-.09.49-.29,1-.38,1.36l26.16.29c.1-.39,2.32-12,3.1-17,1.74-12.21,25.29-170.35,30.62-213.18.58-4.75.39-9.69-4.94-11.63a10.81,10.81,0,0,0-2.91-.49c-2.52,0-4.75,1.36-6.78,3.1" transform="translate(-72.5 -213.83)"/></g><path class="cls-1" d="M666.19,512.55,551.94,692.7l8.42,26.73H637l-14.47,87.69h34.83l14-87.71,22.66,0,4.4-30.3-22,.22,28.09-176.78-38.29,0M641.86,689.38H588.47L661.88,569Z" transform="translate(-72.5 -213.83)"/><path class="cls-1" d="M132.47,719.84h73.9c51.41,0,69.61-23,77.64-71.76L306.51,504a115.77,115.77,0,0,0,1.6-18.21c0-36.42-21.42-53.55-56.23-53.55H131.69L72.5,807.13h45.76ZM261,503,238,649.14c-3.75,21.43-15,31.07-36.41,31.07H138.89l32.67-208.32h63.18c17.68,0,26.78,7,26.78,22.5A49.44,49.44,0,0,1,261,503Z" transform="translate(-72.5 -213.83)"/><polygon class="cls-1" points="315.18 298.75 271.67 298.75 225.3 593.28 268.73 593.28 315.18 298.75"/><polygon class="cls-1" points="301.2 593.29 393.28 440.9 350.37 298.76 395.46 298.74 420.94 395.19 477.5 298.74 522.9 298.76 434.47 445.34 478.95 593.29 434.51 593.29 406.95 491.85 347.07 593.29 301.2 593.29"/></svg>